<svg xmlns="http://www.w3.org/2000/svg" viewBox="0 0 1024 1024" width="1024" height="1024">
  <defs>
    <linearGradient id="tile" x1="0" y1="0" x2="0" y2="1">
      <stop offset="0" stop-color="#110d0c"/>
      <stop offset="0.55" stop-color="#170f0c"/>
      <stop offset="1" stop-color="#2a140a"/>
    </linearGradient>
    <radialGradient id="glow" gradientUnits="userSpaceOnUse" cx="512" cy="700" r="440">
      <stop offset="0" stop-color="#ff6a1a" stop-opacity="0.42"/>
      <stop offset="0.2" stop-color="#ff6a1a" stop-opacity="0.3"/>
      <stop offset="0.4" stop-color="#ff5a1a" stop-opacity="0.17"/>
      <stop offset="0.6" stop-color="#ff4d1a" stop-opacity="0.08"/>
      <stop offset="0.8" stop-color="#ff4d1a" stop-opacity="0.025"/>
      <stop offset="1" stop-color="#ff4d1a" stop-opacity="0"/>
    </radialGradient>
    <clipPath id="tileClip"><rect width="1024" height="1024" rx="228"/></clipPath>
    <linearGradient id="left" x1="0" y1="1" x2="0" y2="0">
      <stop offset="0" stop-color="#b3123f"/>
      <stop offset="0.55" stop-color="#ef2f45"/>
      <stop offset="1" stop-color="#ff6a4d"/>
    </linearGradient>
    <linearGradient id="right" x1="0" y1="1" x2="0" y2="0">
      <stop offset="0" stop-color="#c2410c"/>
      <stop offset="0.6" stop-color="#f97316"/>
      <stop offset="1" stop-color="#ffa23a"/>
    </linearGradient>
    <linearGradient id="center" x1="0" y1="1" x2="0" y2="0">
      <stop offset="0" stop-color="#ff5a1f"/>
      <stop offset="0.5" stop-color="#ffab2e"/>
      <stop offset="1" stop-color="#ffe7a3"/>
    </linearGradient>
    <linearGradient id="core" x1="0" y1="1" x2="0" y2="0">
      <stop offset="0" stop-color="#ffd36b"/>
      <stop offset="1" stop-color="#fffaf0"/>
    </linearGradient>
    <linearGradient id="log" x1="0" y1="0" x2="0" y2="1">
      <stop offset="0" stop-color="#6b3a22"/>
      <stop offset="1" stop-color="#2a150c"/>
    </linearGradient>
  </defs>
  <g transform="translate(100 100) scale(0.8046875)"><g><rect width="1024" height="1024" rx="228" fill="url(#tile)"/></g>

  
  <rect width="1024" height="1024" fill="url(#glow)" clip-path="url(#tileClip)"/>

  <g transform="translate(512 792)">
    <rect x="-280" y="-34" width="560" height="68" rx="34" fill="url(#log)" transform="rotate(-14)"/>
    <rect x="-280" y="-34" width="560" height="68" rx="34" fill="url(#log)" transform="rotate(14)"/>
    <ellipse cx="0" cy="-30" rx="170" ry="26" fill="#ff7a1a" opacity="0.55"/>
  </g>

  <path fill="url(#left)" d="M326 296 C 316 410 258 500 276 622 C 292 726 370 782 458 782 C 404 730 392 660 412 590 C 428 534 404 430 326 296 Z"/>
  <path fill="url(#right)" d="M698 296 C 708 410 766 500 748 622 C 732 726 654 782 566 782 C 620 730 632 660 612 590 C 596 534 620 430 698 296 Z"/>
  <path fill="url(#center)" stroke="#140d0a" stroke-width="10" stroke-linejoin="round" paint-order="stroke" d="M512 160 C 550 268 624 340 640 458 C 660 604 602 774 512 784 C 422 774 364 604 384 458 C 396 372 444 320 470 252 C 486 310 504 330 512 160 Z"/>
  <path fill="url(#core)" stroke="#ff8a2a" stroke-opacity="0.35" stroke-width="10" paint-order="stroke" d="M512 468 C 542 540 594 592 590 664 C 586 736 550 772 512 772 C 474 772 438 736 434 664 C 430 592 482 540 512 468 Z"/>

  <circle cx="414" cy="236" r="11" fill="#ffc861" opacity="0.85"/>
  <circle cx="618" cy="168" r="8" fill="#ffd98a" opacity="0.8"/>
  <circle cx="676" cy="268" r="6" fill="#ff9a3c" opacity="0.75"/>

</g>
</svg>
